<svg xmlns="http://www.w3.org/2000/svg" width="1200" height="900" viewBox="0 0 1200 900">
<rect width="1200" height="900" fill="#8fd3ff"/>
<ellipse cx="300" cy="560" rx="520" ry="160" fill="#7ccf5a"/><ellipse cx="950" cy="560" rx="480" ry="170" fill="#6cc24a"/>
<rect y="560" width="1200" height="340" fill="#6cc24a"/>
<circle cx="130" cy="120" r="75" fill="#ffd23f"/>
<g fill="#fff"><circle cx="330" cy="120" r="38"/><circle cx="375" cy="100" r="50"/><circle cx="425" cy="125" r="38"/></g>
<g fill="#fff"><circle cx="820" cy="90" r="30"/><circle cx="858" cy="74" r="40"/><circle cx="898" cy="92" r="30"/></g>
<rect x="470" y="330" width="300" height="300" fill="#c1272d"/>
<polygon points="440,340 620,200 800,340" fill="#8b1a1f"/>
<rect x="560" y="470" width="120" height="160" fill="#fff"/><path d="M560 470 L680 630 M680 470 L560 630" stroke="#c1272d" stroke-width="10"/>
<rect x="585" y="360" width="70" height="60" fill="#fff3b0" stroke="#fff" stroke-width="8"/>
<rect x="1000" y="330" width="44" height="220" fill="#7a4e2d"/><circle cx="1022" cy="290" r="120" fill="#2e8b3e"/>
<circle cx="980" cy="260" r="16" fill="#e63946"/><circle cx="1060" cy="310" r="16" fill="#e63946"/><circle cx="1010" cy="340" r="14" fill="#e63946"/>
<g fill="#e8d5b0" stroke="#b89b6a" stroke-width="3"><rect x="20" y="520" width="18" height="90"/><rect x="80" y="520" width="18" height="90"/><rect x="140" y="520" width="18" height="90"/><rect x="200" y="520" width="18" height="90"/><rect x="260" y="520" width="18" height="90"/><rect x="320" y="520" width="18" height="90"/><rect x="380" y="520" width="18" height="90"/><rect x="10" y="540" width="430" height="14"/><rect x="10" y="580" width="430" height="14"/></g>
<g transform="translate(230 740)"><ellipse cx="0" cy="0" rx="95" ry="58" fill="#fff" stroke="#333" stroke-width="5"/><ellipse cx="-30" cy="-12" rx="28" ry="20" fill="#333"/><ellipse cx="40" cy="14" rx="22" ry="16" fill="#333"/><rect x="-72" y="40" width="20" height="56" fill="#fff" stroke="#333" stroke-width="4"/><rect x="50" y="40" width="20" height="56" fill="#fff" stroke="#333" stroke-width="4"/><ellipse cx="112" cy="-30" rx="44" ry="36" fill="#fff" stroke="#333" stroke-width="5"/><ellipse cx="130" cy="-14" rx="26" ry="18" fill="#ffb3c1"/><circle cx="104" cy="-44" r="6" fill="#222"/><path d="M84 -64 L76 -84 M140 -64 L150 -84" stroke="#c9a66b" stroke-width="8" stroke-linecap="round"/></g>
<g transform="translate(900 760)"><ellipse cx="0" cy="0" rx="46" ry="38" fill="#fff" stroke="#ccc" stroke-width="3"/><circle cx="34" cy="-36" r="24" fill="#fff" stroke="#ccc" stroke-width="3"/><path d="M26 -62 Q34 -76 42 -62 Q48 -74 54 -60" fill="#e63946"/><polygon points="56,-38 72,-32 56,-26" fill="#ff9f1c"/><circle cx="40" cy="-40" r="4" fill="#222"/><path d="M-6 36 L-10 56 M10 36 L14 56" stroke="#ff9f1c" stroke-width="5"/></g>
<circle cx="520" cy="800" r="12" fill="#ff6fb5"/><circle cx="520" cy="800" r="5" fill="#ffd23f"/><circle cx="600" cy="840" r="12" fill="#ff6fb5"/><circle cx="600" cy="840" r="5" fill="#ffd23f"/><circle cx="700" cy="790" r="12" fill="#ff6fb5"/><circle cx="700" cy="790" r="5" fill="#ffd23f"/><circle cx="1100" cy="850" r="12" fill="#ff6fb5"/><circle cx="1100" cy="850" r="5" fill="#ffd23f"/><circle cx="60" cy="860" r="12" fill="#ff6fb5"/><circle cx="60" cy="860" r="5" fill="#ffd23f"/>
</svg>
