<svg xmlns="http://www.w3.org/2000/svg" width="1280" height="680" viewBox="0 0 1280 680">
<rect width="1280" height="680" fill="#bfe6ff"/>
<ellipse cx="384.0" cy="421.6" rx="640.0" ry="136.0" fill="#8fd66b"/>
<ellipse cx="1024.0" cy="408.0" rx="576.0" ry="122.39999999999999" fill="#7ccf5a"/>
<rect y="408.0" width="1280" height="272.0" fill="#6cc24a"/>
<circle cx="128.0" cy="95.2" r="54.4" fill="#ffd23f"/>
<rect x="437.6812263258405" y="526.9239440904237" width="6" height="40.8" fill="#2e8b3e"/>
<circle cx="454.7" cy="526.9" r="11" fill="#ffffff"/>
<circle cx="445.0" cy="540.2" r="11" fill="#ffffff"/>
<circle cx="429.4" cy="535.2" r="11" fill="#ffffff"/>
<circle cx="429.4" cy="518.7" r="11" fill="#ffffff"/>
<circle cx="445.0" cy="513.6" r="11" fill="#ffffff"/>
<circle cx="440.6812263258405" cy="526.9239440904237" r="9" fill="#ffd23f"/>
<rect x="1192.0644277607644" y="641.352149681409" width="6" height="40.8" fill="#2e8b3e"/>
<circle cx="1209.1" cy="641.4" r="11" fill="#ff6fb5"/>
<circle cx="1199.4" cy="654.7" r="11" fill="#ff6fb5"/>
<circle cx="1183.7" cy="649.6" r="11" fill="#ff6fb5"/>
<circle cx="1183.7" cy="633.1" r="11" fill="#ff6fb5"/>
<circle cx="1199.4" cy="628.0" r="11" fill="#ff6fb5"/>
<circle cx="1195.0644277607644" cy="641.352149681409" r="9" fill="#ffd23f"/>
<rect x="985.744609319042" y="509.2049500165581" width="6" height="40.8" fill="#2e8b3e"/>
<circle cx="1002.7" cy="509.2" r="11" fill="#e63946"/>
<circle cx="993.1" cy="522.5" r="11" fill="#e63946"/>
<circle cx="977.4" cy="517.4" r="11" fill="#e63946"/>
<circle cx="977.4" cy="501.0" r="11" fill="#e63946"/>
<circle cx="993.1" cy="495.9" r="11" fill="#e63946"/>
<circle cx="988.744609319042" cy="509.2049500165581" r="9" fill="#ffd23f"/>
<rect x="709.0549675591153" y="633.3717672440072" width="6" height="40.8" fill="#2e8b3e"/>
<circle cx="726.1" cy="633.4" r="11" fill="#ffffff"/>
<circle cx="716.4" cy="646.7" r="11" fill="#ffffff"/>
<circle cx="700.7" cy="641.6" r="11" fill="#ffffff"/>
<circle cx="700.7" cy="625.1" r="11" fill="#ffffff"/>
<circle cx="716.4" cy="620.1" r="11" fill="#ffffff"/>
<circle cx="712.0549675591153" cy="633.3717672440072" r="9" fill="#ffd23f"/>
<rect x="147.92783816494227" y="486.8183940594719" width="6" height="40.8" fill="#2e8b3e"/>
<circle cx="164.9" cy="486.8" r="11" fill="#ff9f1c"/>
<circle cx="155.3" cy="500.1" r="11" fill="#ff9f1c"/>
<circle cx="139.6" cy="495.0" r="11" fill="#ff9f1c"/>
<circle cx="139.6" cy="478.6" r="11" fill="#ff9f1c"/>
<circle cx="155.3" cy="473.5" r="11" fill="#ff9f1c"/>
<circle cx="150.92783816494227" cy="486.8183940594719" r="9" fill="#ffd23f"/>
<rect x="486.2767987598934" y="637.5250140462907" width="6" height="40.8" fill="#2e8b3e"/>
<circle cx="503.3" cy="637.5" r="11" fill="#c77dff"/>
<circle cx="493.6" cy="650.8" r="11" fill="#c77dff"/>
<circle cx="478.0" cy="645.8" r="11" fill="#c77dff"/>
<circle cx="478.0" cy="629.3" r="11" fill="#c77dff"/>
<circle cx="493.6" cy="624.2" r="11" fill="#c77dff"/>
<circle cx="489.2767987598934" cy="637.5250140462907" r="9" fill="#ffd23f"/>
<rect x="378.0897550152555" y="509.0599180731764" width="6" height="40.8" fill="#2e8b3e"/>
<circle cx="395.1" cy="509.1" r="11" fill="#e63946"/>
<circle cx="385.4" cy="522.4" r="11" fill="#e63946"/>
<circle cx="369.8" cy="517.3" r="11" fill="#e63946"/>
<circle cx="369.8" cy="500.8" r="11" fill="#e63946"/>
<circle cx="385.4" cy="495.7" r="11" fill="#e63946"/>
<circle cx="381.0897550152555" cy="509.0599180731764" r="9" fill="#ffd23f"/>
<rect x="172.55874412071262" y="488.75291263064344" width="6" height="40.8" fill="#2e8b3e"/>
<circle cx="189.6" cy="488.8" r="11" fill="#ffffff"/>
<circle cx="179.9" cy="502.1" r="11" fill="#ffffff"/>
<circle cx="164.2" cy="497.0" r="11" fill="#ffffff"/>
<circle cx="164.2" cy="480.5" r="11" fill="#ffffff"/>
<circle cx="179.9" cy="475.4" r="11" fill="#ffffff"/>
<circle cx="175.55874412071262" cy="488.75291263064344" r="9" fill="#ffd23f"/>
<rect x="570.4349250674954" y="604.3739221689846" width="6" height="40.8" fill="#2e8b3e"/>
<circle cx="587.4" cy="604.4" r="11" fill="#ff9f1c"/>
<circle cx="577.8" cy="617.7" r="11" fill="#ff9f1c"/>
<circle cx="562.1" cy="612.6" r="11" fill="#ff9f1c"/>
<circle cx="562.1" cy="596.1" r="11" fill="#ff9f1c"/>
<circle cx="577.8" cy="591.1" r="11" fill="#ff9f1c"/>
<circle cx="573.4349250674954" cy="604.3739221689846" r="9" fill="#ffd23f"/>
<rect x="894.4833596320634" y="501.5889139048485" width="6" height="40.8" fill="#2e8b3e"/>
<circle cx="911.5" cy="501.6" r="11" fill="#ff6fb5"/>
<circle cx="901.8" cy="514.9" r="11" fill="#ff6fb5"/>
<circle cx="886.2" cy="509.8" r="11" fill="#ff6fb5"/>
<circle cx="886.2" cy="493.4" r="11" fill="#ff6fb5"/>
<circle cx="901.8" cy="488.3" r="11" fill="#ff6fb5"/>
<circle cx="897.4833596320634" cy="501.5889139048485" r="9" fill="#ffd23f"/>
<rect x="1191.403830742462" y="488.45814423340596" width="6" height="40.8" fill="#2e8b3e"/>
<circle cx="1208.4" cy="488.5" r="11" fill="#e63946"/>
<circle cx="1198.7" cy="501.8" r="11" fill="#e63946"/>
<circle cx="1183.1" cy="496.7" r="11" fill="#e63946"/>
<circle cx="1183.1" cy="480.2" r="11" fill="#e63946"/>
<circle cx="1198.7" cy="475.1" r="11" fill="#e63946"/>
<circle cx="1194.403830742462" cy="488.45814423340596" r="9" fill="#ffd23f"/>
<rect x="893.8347741197123" y="617.2263435449377" width="6" height="40.8" fill="#2e8b3e"/>
<circle cx="910.8" cy="617.2" r="11" fill="#c77dff"/>
<circle cx="901.2" cy="630.5" r="11" fill="#c77dff"/>
<circle cx="885.5" cy="625.5" r="11" fill="#c77dff"/>
<circle cx="885.5" cy="609.0" r="11" fill="#c77dff"/>
<circle cx="901.2" cy="603.9" r="11" fill="#c77dff"/>
<circle cx="896.8347741197123" cy="617.2263435449377" r="9" fill="#ffd23f"/>
<rect x="105.13455837496532" y="569.4137354513989" width="6" height="40.8" fill="#2e8b3e"/>
<circle cx="122.1" cy="569.4" r="11" fill="#ff9f1c"/>
<circle cx="112.5" cy="582.7" r="11" fill="#ff9f1c"/>
<circle cx="96.8" cy="577.6" r="11" fill="#ff9f1c"/>
<circle cx="96.8" cy="561.2" r="11" fill="#ff9f1c"/>
<circle cx="112.5" cy="556.1" r="11" fill="#ff9f1c"/>
<circle cx="108.13455837496532" cy="569.4137354513989" r="9" fill="#ffd23f"/>
<rect x="369.8914688945081" y="522.2373667951225" width="6" height="40.8" fill="#2e8b3e"/>
<circle cx="386.9" cy="522.2" r="11" fill="#ff9f1c"/>
<circle cx="377.2" cy="535.6" r="11" fill="#ff9f1c"/>
<circle cx="361.6" cy="530.5" r="11" fill="#ff9f1c"/>
<circle cx="361.6" cy="514.0" r="11" fill="#ff9f1c"/>
<circle cx="377.2" cy="508.9" r="11" fill="#ff9f1c"/>
<circle cx="372.8914688945081" cy="522.2373667951225" r="9" fill="#ffd23f"/>
<rect x="625.2749898724676" y="565.2830810808287" width="6" height="40.8" fill="#2e8b3e"/>
<circle cx="642.3" cy="565.3" r="11" fill="#ff6fb5"/>
<circle cx="632.6" cy="578.6" r="11" fill="#ff6fb5"/>
<circle cx="616.9" cy="573.5" r="11" fill="#ff6fb5"/>
<circle cx="616.9" cy="557.1" r="11" fill="#ff6fb5"/>
<circle cx="632.6" cy="552.0" r="11" fill="#ff6fb5"/>
<circle cx="628.2749898724676" cy="565.2830810808287" r="9" fill="#ffd23f"/>
<rect x="619.4604512181771" y="606.0275367721564" width="6" height="40.8" fill="#2e8b3e"/>
<circle cx="636.5" cy="606.0" r="11" fill="#ff9f1c"/>
<circle cx="626.8" cy="619.3" r="11" fill="#ff9f1c"/>
<circle cx="611.1" cy="614.3" r="11" fill="#ff9f1c"/>
<circle cx="611.1" cy="597.8" r="11" fill="#ff9f1c"/>
<circle cx="626.8" cy="592.7" r="11" fill="#ff9f1c"/>
<circle cx="622.4604512181771" cy="606.0275367721564" r="9" fill="#ffd23f"/>
<rect x="869.1218048839553" y="640.7060568892641" width="6" height="40.8" fill="#2e8b3e"/>
<circle cx="886.1" cy="640.7" r="11" fill="#ff6fb5"/>
<circle cx="876.4" cy="654.0" r="11" fill="#ff6fb5"/>
<circle cx="860.8" cy="648.9" r="11" fill="#ff6fb5"/>
<circle cx="860.8" cy="632.5" r="11" fill="#ff6fb5"/>
<circle cx="876.4" cy="627.4" r="11" fill="#ff6fb5"/>
<circle cx="872.1218048839553" cy="640.7060568892641" r="9" fill="#ffd23f"/>
<rect x="341.9200702702436" y="599.7564662943722" width="6" height="40.8" fill="#2e8b3e"/>
<circle cx="358.9" cy="599.8" r="11" fill="#c77dff"/>
<circle cx="349.2" cy="613.1" r="11" fill="#c77dff"/>
<circle cx="333.6" cy="608.0" r="11" fill="#c77dff"/>
<circle cx="333.6" cy="591.5" r="11" fill="#c77dff"/>
<circle cx="349.2" cy="586.4" r="11" fill="#c77dff"/>
<circle cx="344.9200702702436" cy="599.7564662943722" r="9" fill="#ffd23f"/>
<rect x="454.9492912597" y="451.005984385939" width="6" height="40.8" fill="#2e8b3e"/>
<circle cx="471.9" cy="451.0" r="11" fill="#c77dff"/>
<circle cx="462.3" cy="464.3" r="11" fill="#c77dff"/>
<circle cx="446.6" cy="459.2" r="11" fill="#c77dff"/>
<circle cx="446.6" cy="442.8" r="11" fill="#c77dff"/>
<circle cx="462.3" cy="437.7" r="11" fill="#c77dff"/>
<circle cx="457.9492912597" cy="451.005984385939" r="9" fill="#ffd23f"/>
<rect x="736.4897425228953" y="536.7201215768571" width="6" height="40.8" fill="#2e8b3e"/>
<circle cx="753.5" cy="536.7" r="11" fill="#ff6fb5"/>
<circle cx="743.8" cy="550.0" r="11" fill="#ff6fb5"/>
<circle cx="728.2" cy="544.9" r="11" fill="#ff6fb5"/>
<circle cx="728.2" cy="528.5" r="11" fill="#ff6fb5"/>
<circle cx="743.8" cy="523.4" r="11" fill="#ff6fb5"/>
<circle cx="739.4897425228953" cy="536.7201215768571" r="9" fill="#ffd23f"/>
<rect x="194.39611508714276" y="560.6452526615227" width="6" height="40.8" fill="#2e8b3e"/>
<circle cx="211.4" cy="560.6" r="11" fill="#ff9f1c"/>
<circle cx="201.7" cy="574.0" r="11" fill="#ff9f1c"/>
<circle cx="186.1" cy="568.9" r="11" fill="#ff9f1c"/>
<circle cx="186.1" cy="552.4" r="11" fill="#ff9f1c"/>
<circle cx="201.7" cy="547.3" r="11" fill="#ff9f1c"/>
<circle cx="197.39611508714276" cy="560.6452526615227" r="9" fill="#ffd23f"/>
<rect x="95.54570625271333" y="569.8711130506392" width="6" height="40.8" fill="#2e8b3e"/>
<circle cx="112.5" cy="569.9" r="11" fill="#e63946"/>
<circle cx="102.9" cy="583.2" r="11" fill="#e63946"/>
<circle cx="87.2" cy="578.1" r="11" fill="#e63946"/>
<circle cx="87.2" cy="561.6" r="11" fill="#e63946"/>
<circle cx="102.9" cy="556.6" r="11" fill="#e63946"/>
<circle cx="98.54570625271333" cy="569.8711130506392" r="9" fill="#ffd23f"/>
<rect x="1063.0" y="40.0" width="24.0" height="105.0" fill="#7a4e2d"/>
<g transform="translate(1000 130) scale(0.5859)"><rect x="73.0" y="40" width="110" height="34" rx="17" fill="#f7b733"/><rect x="48.0" y="70" width="160" height="34" rx="17" fill="#f2a71b"/><rect x="30.0" y="100" width="196" height="34" rx="17" fill="#f7b733"/><rect x="23.0" y="130" width="210" height="34" rx="17" fill="#f2a71b"/><rect x="28.0" y="160" width="200" height="34" rx="17" fill="#f7b733"/><rect x="43.0" y="190" width="170" height="34" rx="17" fill="#f2a71b"/><path d="M106 224 A22 22 0 0 1 150 224 Z" fill="#5a3a12"/><rect x="118" y="18" width="20" height="26" rx="6" fill="#7a4e2d"/></g>
<g transform="translate(640 300) scale(0.3125)"><ellipse cx="84" cy="96" rx="58" ry="50" fill="#c77dff"/><ellipse cx="172" cy="96" rx="58" ry="50" fill="#c77dff"/><ellipse cx="92" cy="172" rx="42" ry="38" fill="#ff6fb5"/><ellipse cx="164" cy="172" rx="42" ry="38" fill="#ff6fb5"/><circle cx="84" cy="96" r="18" fill="#ffd23f"/><circle cx="172" cy="96" r="18" fill="#ffd23f"/><rect x="118" y="70" width="20" height="140" rx="10" fill="#2b2b3a"/><path d="M124 72 Q110 40 96 34 M132 72 Q146 40 160 34" stroke="#2b2b3a" stroke-width="5" fill="none" stroke-linecap="round"/></g>
<g transform="translate(60 380) scale(0.2969)"><ellipse cx="84" cy="96" rx="58" ry="50" fill="#c77dff"/><ellipse cx="172" cy="96" rx="58" ry="50" fill="#c77dff"/><ellipse cx="92" cy="172" rx="42" ry="38" fill="#ff6fb5"/><ellipse cx="164" cy="172" rx="42" ry="38" fill="#ff6fb5"/><circle cx="84" cy="96" r="18" fill="#ffd23f"/><circle cx="172" cy="96" r="18" fill="#ffd23f"/><rect x="118" y="70" width="20" height="140" rx="10" fill="#2b2b3a"/><path d="M124 72 Q110 40 96 34 M132 72 Q146 40 160 34" stroke="#2b2b3a" stroke-width="5" fill="none" stroke-linecap="round"/></g>
<g transform="translate(150 140) scale(0.2734)"><ellipse cx="96" cy="70" rx="40" ry="28" fill="#dff3ff" stroke="#9fd0ee" stroke-width="5" transform="rotate(-25 96 70)"/><ellipse cx="152" cy="66" rx="40" ry="28" fill="#dff3ff" stroke="#9fd0ee" stroke-width="5" transform="rotate(20 152 66)"/><ellipse cx="128" cy="146" rx="96" ry="66" fill="#ffd23f"/><rect x="80" y="84" width="24" height="124" fill="#2b2b3a" opacity="0.9"/><rect x="130" y="80" width="24" height="132" fill="#2b2b3a" opacity="0.9"/><path d="M222 146 L248 146" stroke="#2b2b3a" stroke-width="10" stroke-linecap="round"/><circle cx="54" cy="136" r="28" fill="#ffd23f"/><circle cx="48" cy="128" r="10" fill="#fff"/><circle cx="50" cy="129" r="5.5" fill="#222"/><circle cx="52" cy="126" r="2.0" fill="#fff"/><path d="M40 152 Q52 162 64 152" stroke="#2b2b3a" stroke-width="4" fill="none"/></g>
<g transform="translate(520 60) scale(0.2500)"><ellipse cx="96" cy="70" rx="40" ry="28" fill="#dff3ff" stroke="#9fd0ee" stroke-width="5" transform="rotate(-25 96 70)"/><ellipse cx="152" cy="66" rx="40" ry="28" fill="#dff3ff" stroke="#9fd0ee" stroke-width="5" transform="rotate(20 152 66)"/><ellipse cx="128" cy="146" rx="96" ry="66" fill="#ffd23f"/><rect x="80" y="84" width="24" height="124" fill="#2b2b3a" opacity="0.9"/><rect x="130" y="80" width="24" height="132" fill="#2b2b3a" opacity="0.9"/><path d="M222 146 L248 146" stroke="#2b2b3a" stroke-width="10" stroke-linecap="round"/><circle cx="54" cy="136" r="28" fill="#ffd23f"/><circle cx="48" cy="128" r="10" fill="#fff"/><circle cx="50" cy="129" r="5.5" fill="#222"/><circle cx="52" cy="126" r="2.0" fill="#fff"/><path d="M40 152 Q52 162 64 152" stroke="#2b2b3a" stroke-width="4" fill="none"/></g>
<g transform="translate(880 250) scale(0.2344)"><ellipse cx="96" cy="70" rx="40" ry="28" fill="#dff3ff" stroke="#9fd0ee" stroke-width="5" transform="rotate(-25 96 70)"/><ellipse cx="152" cy="66" rx="40" ry="28" fill="#dff3ff" stroke="#9fd0ee" stroke-width="5" transform="rotate(20 152 66)"/><ellipse cx="128" cy="146" rx="96" ry="66" fill="#ffd23f"/><rect x="80" y="84" width="24" height="124" fill="#2b2b3a" opacity="0.9"/><rect x="130" y="80" width="24" height="132" fill="#2b2b3a" opacity="0.9"/><path d="M222 146 L248 146" stroke="#2b2b3a" stroke-width="10" stroke-linecap="round"/><circle cx="54" cy="136" r="28" fill="#ffd23f"/><circle cx="48" cy="128" r="10" fill="#fff"/><circle cx="50" cy="129" r="5.5" fill="#222"/><circle cx="52" cy="126" r="2.0" fill="#fff"/><path d="M40 152 Q52 162 64 152" stroke="#2b2b3a" stroke-width="4" fill="none"/></g>
<g transform="translate(330 470) scale(0.2422)"><ellipse cx="96" cy="70" rx="40" ry="28" fill="#dff3ff" stroke="#9fd0ee" stroke-width="5" transform="rotate(-25 96 70)"/><ellipse cx="152" cy="66" rx="40" ry="28" fill="#dff3ff" stroke="#9fd0ee" stroke-width="5" transform="rotate(20 152 66)"/><ellipse cx="128" cy="146" rx="96" ry="66" fill="#ffd23f"/><rect x="80" y="84" width="24" height="124" fill="#2b2b3a" opacity="0.9"/><rect x="130" y="80" width="24" height="132" fill="#2b2b3a" opacity="0.9"/><path d="M222 146 L248 146" stroke="#2b2b3a" stroke-width="10" stroke-linecap="round"/><circle cx="54" cy="136" r="28" fill="#ffd23f"/><circle cx="48" cy="128" r="10" fill="#fff"/><circle cx="50" cy="129" r="5.5" fill="#222"/><circle cx="52" cy="126" r="2.0" fill="#fff"/><path d="M40 152 Q52 162 64 152" stroke="#2b2b3a" stroke-width="4" fill="none"/></g>
<g transform="translate(1090 520) scale(0.2578)"><ellipse cx="96" cy="70" rx="40" ry="28" fill="#dff3ff" stroke="#9fd0ee" stroke-width="5" transform="rotate(-25 96 70)"/><ellipse cx="152" cy="66" rx="40" ry="28" fill="#dff3ff" stroke="#9fd0ee" stroke-width="5" transform="rotate(20 152 66)"/><ellipse cx="128" cy="146" rx="96" ry="66" fill="#ffd23f"/><rect x="80" y="84" width="24" height="124" fill="#2b2b3a" opacity="0.9"/><rect x="130" y="80" width="24" height="132" fill="#2b2b3a" opacity="0.9"/><path d="M222 146 L248 146" stroke="#2b2b3a" stroke-width="10" stroke-linecap="round"/><circle cx="54" cy="136" r="28" fill="#ffd23f"/><circle cx="48" cy="128" r="10" fill="#fff"/><circle cx="50" cy="129" r="5.5" fill="#222"/><circle cx="52" cy="126" r="2.0" fill="#fff"/><path d="M40 152 Q52 162 64 152" stroke="#2b2b3a" stroke-width="4" fill="none"/></g>
</svg>
